<svg width="27" height="27" viewBox="0 0 27 27" fill="none" xmlns="http://www.w3.org/2000/svg">
<path d="M13.5912 0.576782C6.3927 0.576782 0.550415 6.42878 0.550415 13.6393C0.550415 20.8498 6.3927 26.7018 13.5912 26.7018C20.7897 26.7018 26.632 20.8498 26.632 13.6393C26.632 6.42878 20.7897 0.576782 13.5912 0.576782ZM14.8953 22.783H12.2871V20.1705H14.8953V22.783ZM17.5947 12.6596L16.4211 13.8613C15.4821 14.8149 14.8953 15.5987 14.8953 17.558H12.2871V16.9049C12.2871 15.468 12.874 14.1618 13.8129 13.2082L15.43 11.5623C15.9125 11.0921 16.1994 10.439 16.1994 9.72053C16.1994 8.28366 15.0257 7.10803 13.5912 7.10803C12.1567 7.10803 10.9831 8.28366 10.9831 9.72053H8.3749C8.3749 6.83372 10.7092 4.49553 13.5912 4.49553C16.4732 4.49553 18.8075 6.83372 18.8075 9.72053C18.8075 10.87 18.3381 11.915 17.5947 12.6596Z" fill="#FFD500"/>
</svg>
