<svg width="33" height="29" viewBox="0 0 33 29" fill="none" xmlns="http://www.w3.org/2000/svg">
<path d="M2.13939 17.1347C0.959705 17.1347 0 17.9781 0 19.0147V26.3577C0 27.3944 0.959705 28.2378 2.13939 28.2378H8.41892V17.1347H2.13939Z" fill="#0045AD"/>
<path d="M30.8606 20.5248H24.581V28.2377H30.8606C32.0403 28.2377 33 27.3944 33 26.3577V22.4048C32.9999 21.3682 32.0402 20.5248 30.8606 20.5248Z" fill="#0045AD"/>
<path d="M20.5058 12.8778H12.4941C11.3144 12.8778 10.3547 13.7212 10.3547 14.7579V28.2378H22.6452V14.7579C22.6452 13.7212 21.6855 12.8778 20.5058 12.8778ZM16.6935 21.6426C16.159 21.6426 15.7256 21.2618 15.7256 20.7921V19.0643L15.7167 19.0702C15.5426 19.185 15.3386 19.2404 15.1366 19.2404C14.8423 19.2404 14.5518 19.123 14.3615 18.9002C14.0407 18.5244 14.1274 17.9913 14.5549 17.7094L16.1126 16.6825C16.1185 16.6787 16.1246 16.6755 16.1306 16.6719C16.1455 16.6625 16.1606 16.6535 16.1762 16.6448C16.1881 16.6382 16.1999 16.6318 16.212 16.6257C16.2272 16.6181 16.2427 16.6109 16.2584 16.6039C16.2715 16.5981 16.2846 16.5924 16.298 16.5872C16.313 16.5813 16.3284 16.5758 16.3437 16.5706C16.3582 16.5657 16.3728 16.5608 16.3875 16.5565C16.4022 16.5522 16.4171 16.5484 16.4321 16.5448C16.4481 16.5408 16.464 16.5371 16.48 16.5339C16.4943 16.5311 16.5087 16.5287 16.5232 16.5265C16.5405 16.5237 16.5579 16.5214 16.5752 16.5195C16.589 16.518 16.6028 16.5169 16.6167 16.5159C16.6352 16.5147 16.6536 16.5138 16.672 16.5135C16.6793 16.5134 16.6863 16.5125 16.6935 16.5125C16.7003 16.5125 16.7069 16.5133 16.7137 16.5134C16.7313 16.5138 16.7489 16.5146 16.7664 16.5158C16.7817 16.5168 16.7969 16.5179 16.812 16.5195C16.8272 16.5212 16.8424 16.5233 16.8575 16.5256C16.8742 16.5281 16.8908 16.5307 16.9072 16.534C16.9208 16.5367 16.9341 16.5399 16.9476 16.5431C16.9646 16.5472 16.9815 16.5513 16.998 16.5561C17.0114 16.5599 17.0245 16.5644 17.0377 16.5688C17.0534 16.5741 17.0691 16.5793 17.0844 16.5853C17.0987 16.5907 17.1126 16.597 17.1266 16.6031C17.14 16.609 17.1535 16.6148 17.1667 16.6213C17.1817 16.6287 17.1964 16.6368 17.2111 16.6449C17.2225 16.6513 17.234 16.6576 17.2452 16.6644C17.2599 16.6733 17.2742 16.683 17.2884 16.6928C17.299 16.7001 17.3095 16.7073 17.3199 16.7149C17.3329 16.7247 17.3456 16.735 17.3582 16.7455C17.3691 16.7545 17.3798 16.7637 17.3902 16.7732C17.4009 16.783 17.4113 16.7931 17.4216 16.8035C17.433 16.815 17.4442 16.8267 17.455 16.8388C17.4593 16.8435 17.464 16.8477 17.4681 16.8526C17.4725 16.8577 17.476 16.8632 17.4802 16.8684C17.4909 16.8815 17.5011 16.8948 17.511 16.9084C17.5185 16.9189 17.5258 16.9293 17.5327 16.94C17.5414 16.9532 17.5496 16.9668 17.5575 16.9806C17.5641 16.9922 17.5706 17.0038 17.5766 17.0156C17.5833 17.0287 17.5895 17.0422 17.5955 17.0557C17.6011 17.0685 17.6066 17.0813 17.6115 17.0942C17.6164 17.1071 17.6207 17.1202 17.6249 17.1333C17.6294 17.1473 17.6336 17.1614 17.6372 17.1755C17.6404 17.188 17.6432 17.2006 17.6457 17.2133C17.6488 17.2286 17.6515 17.2439 17.6536 17.2592C17.6553 17.2712 17.6566 17.2833 17.6577 17.2956C17.6591 17.3118 17.66 17.328 17.6604 17.3442C17.6606 17.3506 17.6615 17.3568 17.6615 17.3631V20.7921H17.6616C17.6614 21.2618 17.2281 21.6426 16.6935 21.6426Z" fill="#0045AD"/>
<path d="M21.9057 4.21354C21.7725 3.85348 21.4249 3.59594 20.9985 3.54145L18.5864 3.23344L17.5078 1.31276C17.3171 0.973197 16.931 0.762268 16.5 0.762268C16.0692 0.762268 15.683 0.973197 15.4922 1.31276L14.4136 3.23349L12.0015 3.54151C11.5751 3.59594 11.2275 3.85348 11.0943 4.21366C10.9611 4.57384 11.0701 4.96177 11.3787 5.22605L13.124 6.72113L12.712 8.83235C12.6392 9.20556 12.8105 9.57565 13.1592 9.79824C13.5078 10.0208 13.9613 10.0496 14.3427 9.87335L16.5001 8.87665L18.6575 9.87335C18.8234 9.95004 19.0029 9.98788 19.1815 9.98788C19.4136 9.98788 19.6441 9.92399 19.8411 9.79813C20.1898 9.57553 20.361 9.20533 20.2882 8.83224L19.8762 6.72113L21.6217 5.22594C21.9299 4.9616 22.0389 4.57367 21.9057 4.21354Z" fill="#FFD500"/>
</svg>
