<svg width="29" height="21" viewBox="0 0 29 21" fill="none" xmlns="http://www.w3.org/2000/svg">
<path d="M19.6667 9.04167C21.8109 9.04167 23.5288 7.0875 23.5288 4.66667C23.5288 2.24583 21.8109 0.291666 19.6667 0.291666C17.5225 0.291666 15.7917 2.24583 15.7917 4.66667C15.7917 7.0875 17.5225 9.04167 19.6667 9.04167ZM9.33335 9.04167C11.4775 9.04167 13.1954 7.0875 13.1954 4.66667C13.1954 2.24583 11.4775 0.291666 9.33335 0.291666C7.18919 0.291666 5.45835 2.24583 5.45835 4.66667C5.45835 7.0875 7.18919 9.04167 9.33335 9.04167ZM9.33335 11.9583C6.32377 11.9583 0.291687 13.6646 0.291687 17.0625V20.7083H18.375V17.0625C18.375 13.6646 12.3429 11.9583 9.33335 11.9583ZM19.6667 11.9583C19.2921 11.9583 18.8659 11.9875 18.4138 12.0312C19.9121 13.2563 20.9584 14.9042 20.9584 17.0625V20.7083H28.7084V17.0625C28.7084 13.6646 22.6763 11.9583 19.6667 11.9583Z" fill="#009B48"/>
</svg>
